<?xml version="1.0" encoding="utf-8"?>
<!-- Generator: Adobe Illustrator 16.0.4, SVG Export Plug-In . SVG Version: 6.00 Build 0)  -->
<!DOCTYPE svg PUBLIC "-//W3C//DTD SVG 1.1//EN" "http://www.w3.org/Graphics/SVG/1.1/DTD/svg11.dtd">
<svg version="1.1" id="Layer_1" xmlns="http://www.w3.org/2000/svg" xmlns:xlink="http://www.w3.org/1999/xlink" x="0px" y="0px"
	 width="342.028px" height="63.369px" viewBox="0 0 342.028 63.369" enable-background="new 0 0 342.028 63.369"
	 xml:space="preserve">
<polygon fill="none" stroke="#FFFFFF" stroke-width="2.7621" stroke-miterlimit="10" points="65.227,15.53 32.167,38.608 
	65.227,61.684 98.284,38.608 "/>
<polyline fill="none" stroke="#FFFFFF" stroke-width="2.7621" stroke-miterlimit="10" points="78.449,24.76 45.391,1.684 
	12.332,24.76 "/>
<polyline fill="none" stroke="#FFFFFF" stroke-width="2.7621" stroke-miterlimit="10" points="118.121,24.76 85.061,1.684 
	52.003,24.76 "/>
<polygon fill="none" stroke="#FFFFFF" stroke-width="2.7621" stroke-miterlimit="10" points="65.227,1.684 32.167,24.76 
	65.227,47.838 98.284,24.76 "/>
<polygon fill="#FFFFFF" stroke="#FFFFFF" stroke-width="2.7621" stroke-miterlimit="10" points="118.121,24.76 108.202,31.684 
	118.121,38.608 128.038,31.684 "/>
<polygon fill="#FFFFFF" stroke="#FFFFFF" stroke-width="2.7621" stroke-miterlimit="10" points="12.332,24.76 2.413,31.684 
	12.332,38.608 22.25,31.684 "/>
<polygon fill="#FFFFFF" stroke="#FFFFFF" stroke-width="2.7621" stroke-miterlimit="10" points="329.697,24.76 319.78,31.684 
	329.697,38.608 339.616,31.684 "/>
<polygon fill="none" stroke="#FFFFFF" stroke-width="2.7621" stroke-miterlimit="10" points="171.015,15.53 137.955,38.608 
	171.015,61.684 204.074,38.608 "/>
<polyline fill="none" stroke="#FFFFFF" stroke-width="2.7621" stroke-miterlimit="10" points="184.238,24.76 151.18,1.684 
	118.121,24.76 "/>
<polyline fill="none" stroke="#FFFFFF" stroke-width="2.7621" stroke-miterlimit="10" points="223.91,24.76 190.85,1.684 
	157.792,24.76 "/>
<polygon fill="none" stroke="#FFFFFF" stroke-width="2.7621" stroke-miterlimit="10" points="171.015,1.684 137.955,24.76 
	171.015,47.838 204.074,24.76 "/>
<polygon fill="#FFFFFF" stroke="#FFFFFF" stroke-width="2.7621" stroke-miterlimit="10" points="223.91,24.76 213.992,31.684 
	223.91,38.608 233.827,31.684 "/>
<polygon fill="none" stroke="#FFFFFF" stroke-width="2.7621" stroke-miterlimit="10" points="276.804,15.53 243.745,38.608 
	276.804,61.684 309.863,38.608 "/>
<polyline fill="none" stroke="#FFFFFF" stroke-width="2.7621" stroke-miterlimit="10" points="290.026,24.76 256.969,1.684 
	223.91,24.76 "/>
<polyline fill="none" stroke="#FFFFFF" stroke-width="2.7621" stroke-miterlimit="10" points="329.697,24.76 296.639,1.684 
	263.58,24.76 "/>
<polygon fill="none" stroke="#FFFFFF" stroke-width="2.7621" stroke-miterlimit="10" points="276.804,1.684 243.745,24.76 
	276.804,47.838 309.863,24.76 "/>
</svg>